<svg xmlns="http://www.w3.org/2000/svg" viewBox="0 0 400 300">
  <rect width="400" height="300" fill="#f8fafc"/>
  
  <!-- App grid -->
  <g transform="translate(100, 60)">
    <!-- Row 1 -->
    <rect x="0" y="0" width="60" height="60" fill="#3b82f6" opacity="0.8" rx="8"/>
    <path d="M 15,20 L 25,20 L 25,30 L 35,30 L 35,35 L 25,35 L 25,45 L 15,45 L 15,35 L 5,35 L 5,30 L 15,30 Z" fill="white" transform="translate(10, -5)"/>
    <text x="30" y="75" text-anchor="middle" fill="#64748b" font-size="9" font-weight="bold">Analytics</text>
    
    <rect x="75" y="0" width="60" height="60" fill="#10b981" opacity="0.8" rx="8"/>
    <circle cx="105" cy="25" r="8" fill="white" opacity="0.8"/>
    <rect x="99" y="33" width="12" height="14" fill="white" opacity="0.8" rx="2"/>
    <text x="105" y="75" text-anchor="middle" fill="#64748b" font-size="9" font-weight="bold">CRM</text>
    
    <rect x="150" y="0" width="60" height="60" fill="#8b5cf6" opacity="0.8" rx="8"/>
    <rect x="165" y="18" width="30" height="20" fill="none" stroke="white" stroke-width="2" rx="2"/>
    <path d="M 165,18 L 180,28 L 195,18" fill="none" stroke="white" stroke-width="2"/>
    <text x="180" y="75" text-anchor="middle" fill="#64748b" font-size="9" font-weight="bold">Email</text>
    
    <!-- Row 2 -->
    <rect x="0" y="90" width="60" height="60" fill="#f59e0b" opacity="0.8" rx="8"/>
    <rect x="12" y="105" width="36" height="30" fill="white" opacity="0.7" rx="3"/>
    <rect x="18" y="110" width="24" height="8" fill="#f59e0b" opacity="0.8"/>
    <text x="30" y="165" text-anchor="middle" fill="#64748b" font-size="9" font-weight="bold">Inventory</text>
    
    <rect x="75" y="90" width="60" height="60" fill="#ec4899" opacity="0.8" rx="8"/>
    <text x="105" y="122" text-anchor="middle" fill="white" font-size="20" font-weight="bold">$</text>
    <text x="105" y="165" text-anchor="middle" fill="#64748b" font-size="9" font-weight="bold">Finance</text>
    
    <rect x="150" y="90" width="60" height="60" fill="#06b6d4" opacity="0.8" rx="8"/>
    <circle cx="172" cy="115" r="6" fill="white"/>
    <circle cx="188" cy="115" r="6" fill="white"/>
    <circle cx="180" cy="128" r="6" fill="white"/>
    <text x="180" y="165" text-anchor="middle" fill="#64748b" font-size="9" font-weight="bold">HR</text>
    
    <!-- Row 3 -->
    <rect x="0" y="180" width="60" height="60" fill="#f97316" opacity="0.8" rx="8"/>
    <rect x="15" y="195" width="30" height="24" fill="none" stroke="white" stroke-width="2" rx="2"/>
    <line x1="20" y1="202" x2="40" y2="202" stroke="white" stroke-width="2"/>
    <line x1="20" y1="208" x2="40" y2="208" stroke="white" stroke-width="2"/>
    <text x="30" y="255" text-anchor="middle" fill="#64748b" font-size="9" font-weight="bold">Projects</text>
    
    <rect x="75" y="180" width="60" height="60" fill="#14b8a6" opacity="0.8" rx="8"/>
    <circle cx="105" cy="210" r="12" fill="none" stroke="white" stroke-width="2.5"/>
    <circle cx="105" cy="210" r="4" fill="white"/>
    <text x="105" y="255" text-anchor="middle" fill="#64748b" font-size="9" font-weight="bold">Alerts</text>
    
    <rect x="150" y="180" width="60" height="60" fill="#6366f1" opacity="0.8" rx="8"/>
    <circle cx="180" cy="210" r="10" fill="none" stroke="white" stroke-width="2"/>
    <circle cx="186" cy="204" r="2" fill="white"/>
    <circle cx="186" cy="210" r="2" fill="white"/>
    <circle cx="186" cy="216" r="2" fill="white"/>
    <text x="180" y="255" text-anchor="middle" fill="#64748b" font-size="9" font-weight="bold">Settings</text>
  </g>
  
  <!-- Feature badges -->
  <g transform="translate(80, 30)">
    <rect x="0" y="0" width="240" height="20" fill="#10b981" opacity="0.2" rx="10"/>
    <text x="120" y="14" text-anchor="middle" fill="#10b981" font-size="11" font-weight="bold">? Integrated Business Suite</text>
  </g>
  
  <!-- Title -->
  <text x="200" y="290" text-anchor="middle" fill="#1e293b" font-size="13" font-weight="bold">Enterprise Business Applications</text>
</svg>
