<svg xmlns="http://www.w3.org/2000/svg" viewBox="0 0 400 300">
  <rect width="400" height="300" fill="#f8fafc"/>
  
  <!-- Primary database -->
  <g transform="translate(200, 80)">
    <ellipse cx="0" cy="0" rx="50" ry="15" fill="#3b82f6" opacity="0.8"/>
    <rect x="-50" y="0" width="100" height="40" fill="#3b82f6" opacity="0.8"/>
    <ellipse cx="0" cy="40" rx="50" ry="15" fill="#2563eb" opacity="0.9"/>
    <text x="0" y="70" text-anchor="middle" fill="#1e293b" font-size="11" font-weight="bold">Primary</text>
    <circle cx="-35" cy="20" r="3" fill="#10b981"/>
    <text x="0" y="-20" text-anchor="middle" fill="#10b981" font-size="12" font-weight="bold">ACTIVE</text>
  </g>
  
  <!-- Replica 1 -->
  <g transform="translate(80, 180)">
    <ellipse cx="0" cy="0" rx="45" ry="13" fill="#8b5cf6" opacity="0.7"/>
    <rect x="-45" y="0" width="90" height="35" fill="#8b5cf6" opacity="0.7"/>
    <ellipse cx="0" cy="35" rx="45" ry="13" fill="#7c3aed" opacity="0.8"/>
    <text x="0" y="60" text-anchor="middle" fill="#1e293b" font-size="10" font-weight="bold">Replica 1</text>
    <circle cx="-30" cy="17" r="2" fill="#10b981"/>
  </g>
  
  <!-- Replica 2 -->
  <g transform="translate(200, 220)">
    <ellipse cx="0" cy="0" rx="45" ry="13" fill="#8b5cf6" opacity="0.7"/>
    <rect x="-45" y="0" width="90" height="35" fill="#8b5cf6" opacity="0.7"/>
    <ellipse cx="0" cy="35" rx="45" ry="13" fill="#7c3aed" opacity="0.8"/>
    <text x="0" y="60" text-anchor="middle" fill="#1e293b" font-size="10" font-weight="bold">Replica 2</text>
    <circle cx="-30" cy="17" r="2" fill="#10b981"/>
  </g>
  
  <!-- Replica 3 -->
  <g transform="translate(320, 180)">
    <ellipse cx="0" cy="0" rx="45" ry="13" fill="#8b5cf6" opacity="0.7"/>
    <rect x="-45" y="0" width="90" height="35" fill="#8b5cf6" opacity="0.7"/>
    <ellipse cx="0" cy="35" rx="45" ry="13" fill="#7c3aed" opacity="0.8"/>
    <text x="0" y="60" text-anchor="middle" fill="#1e293b" font-size="10" font-weight="bold">Replica 3</text>
    <circle cx="-30" cy="17" r="2" fill="#10b981"/>
  </g>
  
  <!-- Replication arrows -->
  <g>
    <path d="M 180,110 L 100,170" stroke="#10b981" stroke-width="2" fill="none" marker-end="url(#arrowgreen)"/>
    <path d="M 200,120 L 200,190" stroke="#10b981" stroke-width="2" fill="none" marker-end="url(#arrowgreen)"/>
    <path d="M 220,110 L 300,170" stroke="#10b981" stroke-width="2" fill="none" marker-end="url(#arrowgreen)"/>
    
    <!-- Sync indicators -->
    <text x="130" y="135" fill="#10b981" font-size="9">sync</text>
    <text x="195" y="155" fill="#10b981" font-size="9">sync</text>
    <text x="260" y="135" fill="#10b981" font-size="9">sync</text>
  </g>
  
  <!-- Arrow marker definition -->
  <defs>
    <marker id="arrowgreen" markerWidth="10" markerHeight="10" refX="9" refY="3" orient="auto" markerUnits="strokeWidth">
      <path d="M0,0 L0,6 L9,3 z" fill="#10b981"/>
    </marker>
  </defs>
  
  <!-- Load balancer indicator -->
  <g transform="translate(200, 30)">
    <rect x="-40" y="-15" width="80" height="25" fill="#f97316" opacity="0.8" rx="4"/>
    <text x="0" y="3" text-anchor="middle" fill="white" font-size="11" font-weight="bold">Load Balancer</text>
  </g>
  
  <!-- Connection from load balancer to primary -->
  <line x1="200" y1="40" x2="200" y2="65" stroke="#94a3b8" stroke-width="2" stroke-dasharray="4,4"/>
</svg>
