<svg xmlns="http://www.w3.org/2000/svg" viewBox="0 0 400 300">
  <rect width="400" height="300" fill="#f8fafc"/>
  
  <!-- Shield outline -->
  <g transform="translate(200, 80)">
    <path d="M 0,0 L 60,20 L 60,80 Q 60,140 0,160 Q -60,140 -60,80 L -60,20 Z" 
          fill="#10b981" opacity="0.2" stroke="#10b981" stroke-width="3"/>
    <path d="M 0,10 L 50,28 L 50,80 Q 50,130 0,148 Q -50,130 -50,80 L -50,28 Z" 
          fill="#10b981" opacity="0.4"/>
    
    <!-- Checkmark -->
    <path d="M -20,70 L -5,85 L 25,50" stroke="white" stroke-width="6" fill="none" stroke-linecap="round" stroke-linejoin="round"/>
  </g>
  
  <!-- Security features around shield -->
  <g transform="translate(80, 130)">
    <circle cx="0" cy="0" r="25" fill="#3b82f6" opacity="0.2"/>
    <text x="0" y="5" text-anchor="middle" fill="#3b82f6" font-size="20">??</text>
    <text x="0" y="40" text-anchor="middle" fill="#64748b" font-size="9">Encryption</text>
  </g>
  
  <g transform="translate(320, 130)">
    <circle cx="0" cy="0" r="25" fill="#8b5cf6" opacity="0.2"/>
    <text x="0" y="5" text-anchor="middle" fill="#8b5cf6" font-size="20">???</text>
    <text x="0" y="40" text-anchor="middle" fill="#64748b" font-size="9">Firewall</text>
  </g>
  
  <g transform="translate(140, 230)">
    <circle cx="0" cy="0" r="25" fill="#f97316" opacity="0.2"/>
    <text x="0" y="5" text-anchor="middle" fill="#f97316" font-size="20">???</text>
    <text x="0" y="40" text-anchor="middle" fill="#64748b" font-size="9">Monitoring</text>
  </g>
  
  <g transform="translate(260, 230)">
    <circle cx="0" cy="0" r="25" fill="#ec4899" opacity="0.2"/>
    <text x="0" y="5" text-anchor="middle" fill="#ec4899" font-size="20">??</text>
    <text x="0" y="40" text-anchor="middle" fill="#64748b" font-size="9">Access</text>
  </g>
  
  <!-- Connection lines -->
  <line x1="105" y1="130" x2="160" y2="130" stroke="#cbd5e1" stroke-width="2" stroke-dasharray="4,4"/>
  <line x1="240" y1="130" x2="295" y2="130" stroke="#cbd5e1" stroke-width="2" stroke-dasharray="4,4"/>
  <line x1="165" y1="205" x2="200" y2="180" stroke="#cbd5e1" stroke-width="2" stroke-dasharray="4,4"/>
  <line x1="235" y1="205" x2="200" y2="180" stroke="#cbd5e1" stroke-width="2" stroke-dasharray="4,4"/>
  
  <!-- Status -->
  <text x="200" y="20" text-anchor="middle" fill="#10b981" font-size="16" font-weight="bold">? Protected</text>
</svg>
