<svg xmlns="http://www.w3.org/2000/svg" viewBox="0 0 400 300">
  <rect width="400" height="300" fill="#f8fafc"/>
  
  <!-- Shield outline -->
  <g transform="translate(200, 80)">
    <path d="M 0,0 L 60,20 L 60,80 Q 60,140 0,160 Q -60,140 -60,80 L -60,20 Z" 
          fill="#10b981" opacity="0.2" stroke="#10b981" stroke-width="3"/>
    <path d="M 0,10 L 50,28 L 50,80 Q 50,130 0,148 Q -50,130 -50,80 L -50,28 Z" 
          fill="#10b981" opacity="0.4"/>
    
    <!-- Checkmark -->
    <path d="M -20,70 L -5,85 L 25,50" stroke="white" stroke-width="6" fill="none" stroke-linecap="round" stroke-linejoin="round"/>
  </g>
  
  <!-- Security features around shield -->
  <!-- Encryption (Lock icon) -->
  <g transform="translate(80, 130)">
    <circle cx="0" cy="0" r="25" fill="#3b82f6" opacity="0.2"/>
    <rect x="-8" y="-2" width="16" height="12" fill="#3b82f6" rx="2"/>
    <path d="M -6,-2 L -6,-6 Q -6,-10 0,-10 Q 6,-10 6,-6 L 6,-2" stroke="#3b82f6" stroke-width="2" fill="none"/>
    <text x="0" y="40" text-anchor="middle" fill="#64748b" font-size="9">Encryption</text>
  </g>
  
  <!-- Firewall (Shield icon) -->
  <g transform="translate(320, 130)">
    <circle cx="0" cy="0" r="25" fill="#8b5cf6" opacity="0.2"/>
    <path d="M 0,-10 L 8,-7 L 8,2 Q 8,8 0,10 Q -8,8 -8,2 L -8,-7 Z" fill="#8b5cf6" stroke="#8b5cf6" stroke-width="1.5"/>
    <text x="0" y="40" text-anchor="middle" fill="#64748b" font-size="9">Firewall</text>
  </g>
  
  <!-- Monitoring (Eye icon) -->
  <g transform="translate(140, 230)">
    <circle cx="0" cy="0" r="25" fill="#f97316" opacity="0.2"/>
    <ellipse cx="0" cy="0" rx="10" ry="6" fill="none" stroke="#f97316" stroke-width="2"/>
    <circle cx="0" cy="0" r="3" fill="#f97316"/>
    <text x="0" y="40" text-anchor="middle" fill="#64748b" font-size="9">Monitoring</text>
  </g>
  
  <!-- Access Control (Key icon) -->
  <g transform="translate(260, 230)">
    <circle cx="0" cy="0" r="25" fill="#ec4899" opacity="0.2"/>
    <circle cx="-5" cy="0" r="4" fill="none" stroke="#ec4899" stroke-width="2"/>
    <rect x="-1" y="-1" width="8" height="2" fill="#ec4899"/>
    <rect x="3" y="-3" width="2" height="2" fill="#ec4899"/>
    <rect x="5" y="-3" width="2" height="2" fill="#ec4899"/>
    <text x="0" y="40" text-anchor="middle" fill="#64748b" font-size="9">Access</text>
  </g>
  
  <!-- Connection lines -->
  <line x1="105" y1="130" x2="160" y2="130" stroke="#cbd5e1" stroke-width="2" stroke-dasharray="4,4"/>
  <line x1="240" y1="130" x2="295" y2="130" stroke="#cbd5e1" stroke-width="2" stroke-dasharray="4,4"/>
  <line x1="165" y1="205" x2="200" y2="180" stroke="#cbd5e1" stroke-width="2" stroke-dasharray="4,4"/>
  <line x1="235" y1="205" x2="200" y2="180" stroke="#cbd5e1" stroke-width="2" stroke-dasharray="4,4"/>
  
  <!-- Status -->
  <text x="200" y="20" text-anchor="middle" fill="#10b981" font-size="16" font-weight="bold">Protected</text>
</svg>
